Patient4_TMGait_0pt5_02_right_06_GRF.mot
version=1
nRows=26
nColumns=19
inDegrees=no
endheader
time	F1x	F1y	F1z	M1x	M1y	M1z	F2x	F2y	F2z	M2x	M2y	M2z	EC1x	EC1y	EC1z	EC2x	EC2y	EC2z
7.8	-7.7956	762.1249	63.539	-274.5226	-53.8584	619.9401	-2.9236	9.6571	13.0419	-1.0066	-10.3064	11.7045	-0.0592	0.0182	-0.0073	-0.0462	0.0165	0.9585
7.8134	-7.4718	753.7996	63.7685	-271.2026	-52.9146	610.0771	-2.1644	7.0539	8.7309	-0.44687	-6.8453	8.4171	-0.0592	0.0182	-0.0073	-0.0462	0.0165	0.9585
7.8269	-6.5587	744.6861	63.7546	-267.4829	-51.6107	599.1277	-1.4874	4.8444	5.0391	0.0382	-3.8891	5.6161	-0.0592	0.0182	-0.0073	-0.0462	0.0165	0.9585
7.8403	-5.1478	735.8986	63.494	-263.8019	-50.029	588.0951	-0.93703	3.1728	2.1957	0.42036	-1.6196	3.4862	-0.0592	0.0182	-0.0073	-0.0462	0.0165	0.9585
7.8537	-3.4061	728.557	63.0352	-260.6196	-48.285	577.9594	-0.54141	2.0543	0.21292	0.70084	-0.037638	2.0526	-0.0592	0.0182	-0.0073	-0.0462	0.0165	0.9585
7.8671	-1.4844	723.5244	62.4256	-258.3109	-46.4683	569.4352	-0.27853	1.3955	-1.0307	0.88713	0.95612	1.2013	-0.0592	0.0182	-0.0073	-0.0462	0.0165	0.9585
7.8806	0.51089	721.2877	61.6976	-257.1065	-44.6321	562.9031	-0.12828	1.065	-1.697	0.98942	1.494	0.77796	-0.0592	0.0182	-0.0073	-0.0462	0.0165	0.9585
7.894	2.5576	721.9125	60.8562	-257.0723	-42.7796	558.3739	-0.073003	0.90675	-1.9619	1.0093	1.7219	0.60651	-0.0592	0.0182	-0.0073	-0.0462	0.0165	0.9585
7.9074	4.7062	725.0772	59.8908	-258.1188	-40.8718	555.5506	-0.078088	0.74933	-1.9751	0.93602	1.7577	0.48996	-0.0592	0.0182	-0.0073	-0.0462	0.0165	0.9585
7.9209	7.0542	730.1622	58.7881	-260.032	-38.8439	553.9163	-0.13323	0.44632	-1.8621	0.75224	1.7022	0.2771	-0.0592	0.0182	-0.0073	-0.0462	0.0165	0.9585
7.9343	9.7341	736.3728	57.5528	-262.5144	-36.6338	552.8429	-0.20503	-0.15844	-1.7053	0.42743	1.6128	-0.20219	-0.0592	0.0182	-0.0073	-0.0462	0.0165	0.9585
7.9477	12.8586	742.8616	56.2087	-265.2283	-34.1995	551.7188	-0.28028	-1.186	-1.5531	-0.068414	1.523	-1.0703	-0.0592	0.0182	-0.0073	-0.0462	0.0165	0.9585
7.9611	16.5149	748.8238	54.8232	-267.8377	-31.5434	549.999	-0.32177	-2.7208	-1.4216	-0.75827	1.4326	-2.4266	-0.0592	0.0182	-0.0073	-0.0462	0.0165	0.9585
7.9746	20.7216	753.634	53.4986	-270.0586	-28.7193	547.3269	-0.28567	-4.7653	-1.3014	-1.6366	1.3154	-4.2845	-0.0592	0.0182	-0.0073	-0.0462	0.0165	0.9585
7.988	25.4157	756.9044	52.3604	-271.6913	-25.8333	543.5545	-0.13002	-7.178	-1.165	-2.644	1.1294	-6.5032	-0.0592	0.0182	-0.0073	-0.0462	0.0165	0.9585
8.0014	30.4403	758.4575	51.526	-272.6164	-23.0253	538.7096	0.21508	-9.6091	-0.96758	-3.6378	0.80802	-8.7601	-0.0592	0.0182	-0.0073	-0.0462	0.0165	0.9585
8.0149	35.5449	758.2442	51.0807	-272.7722	-20.4492	532.9218	0.79696	-11.3794	-0.65875	-4.3476	0.28789	-10.4142	-0.0592	0.0182	-0.0073	-0.0462	0.0165	0.9585
8.0283	40.4524	756.2405	51.0584	-272.1246	-18.2368	526.3108	1.6694	-11.4273	-0.17672	-4.3462	-0.50074	-10.4932	-0.0592	0.0182	-0.0073	-0.0462	0.0165	0.9585
8.0417	44.8921	752.4006	51.4262	-270.6487	-16.4722	518.9578	2.8375	-8.23	0.52446	-3.0215	-1.5941	-7.5903	-0.0592	0.0182	-0.0073	-0.0462	0.0165	0.9585
8.0551	48.6673	746.6311	52.0921	-268.322	-15.1738	510.8556	4.2412	0.17869	1.4712	0.41717	-2.983	0.10135	-0.0592	0.0182	-0.0073	-0.0462	0.0165	0.9585
8.0686	51.6491	738.779	52.9125	-265.1133	-14.2987	501.9308	5.7168	16.0765	2.6287	6.885	-4.5576	14.6632	-0.0592	0.0182	-0.0073	-0.0462	0.0165	0.9585
8.082	53.789	728.5455	53.6979	-260.95	-13.7447	491.9838	6.9249	41.7323	3.8674	17.2917	-6.0518	38.1844	-0.0592	0.0182	-0.0073	-0.0462	0.0165	0.9585
8.0954	55.0886	715.415	54.2266	-255.6895	-13.3736	480.6496	7.3036	78.8245	4.9168	32.3092	-6.9807	72.2	-0.0592	0.0182	-0.0073	-0.0462	0.0165	0.9585
8.1089	55.5604	698.622	54.2542	-249.1044	-13.0281	467.3835	5.9254	127.6131	5.4269	52.0295	-6.6551	116.9558	-0.0592	0.0182	-0.0073	-0.0462	0.0165	0.9585
8.1223	55.2274	677.1588	53.5415	-240.8874	-12.5556	451.4708	1.8188	185.7544	5.0028	75.4924	-4.3433	170.3014	-0.0592	0.0182	-0.0073	-0.0462	0.0165	0.9585
8.1357	54.095	649.9857	51.8813	-230.7214	-11.8275	432.1866	-4.9783	247.7151	3.1969	100.4375	0.31396	227.1393	-0.0592	0.0182	-0.0073	-0.0462	0.0165	0.9585
